// Facebook icon for login button
// Save as: d:/ProjectGralvo/frontend/public/icons/facebook.svg
<svg xmlns="http://www.w3.org/2000/svg" width="20" height="20" viewBox="0 0 48 48"><path fill="#1877f2" d="M24 4C12.95 4 4 12.95 4 24c0 9.68 7.16 17.68 16.5 19.54V30.89h-4.97v-6.89h4.97v-5.25c0-4.92 2.93-7.64 7.42-7.64 2.15 0 4.4.38 4.4.38v4.83h-2.48c-2.44 0-3.2 1.52-3.2 3.08v3.6h5.44l-.87 6.89h-4.57v12.65C36.84 41.68 44 33.68 44 24c0-11.05-8.95-20-20-20z"/><path fill="#fff" d="M32.07 30.89l.87-6.89h-5.44v-3.6c0-1.56.76-3.08 3.2-3.08h2.48v-4.83s-2.25-.38-4.4-.38c-4.49 0-7.42 2.72-7.42 7.64v5.25h-4.97v6.89h4.97v12.65c1.01.16 2.05.25 3.12.25s2.11-.09 3.12-.25V30.89h4.57z"/></svg>
