// Add SVG icons for Google and Facebook login buttons
// Google icon
// Save as: d:/ProjectGralvo/frontend/public/icons/google.svg
<svg xmlns="http://www.w3.org/2000/svg" width="20" height="20" viewBox="0 0 48 48"><g><path fill="#4285F4" d="M24 9.5c3.54 0 6.7 1.22 9.19 3.23l6.85-6.85C36.68 2.7 30.77 0 24 0 14.82 0 6.71 5.48 2.69 13.44l7.98 6.2C12.13 13.13 17.57 9.5 24 9.5z"/><path fill="#34A853" d="M46.1 24.55c0-1.64-.15-3.22-.42-4.74H24v9.01h12.42c-.54 2.9-2.18 5.36-4.65 7.01l7.19 5.59C43.98 37.13 46.1 31.36 46.1 24.55z"/><path fill="#FBBC05" d="M10.67 28.65A14.5 14.5 0 0 1 9.5 24c0-1.62.28-3.19.77-4.65l-7.98-6.2A23.93 23.93 0 0 0 0 24c0 3.77.9 7.34 2.49 10.49l8.18-5.84z"/><path fill="#EA4335" d="M24 48c6.48 0 11.92-2.14 15.89-5.81l-7.19-5.59c-2 1.34-4.56 2.14-8.7 2.14-6.43 0-11.87-3.63-14.33-8.89l-8.18 5.84C6.71 42.52 14.82 48 24 48z"/></g></svg>
